<svg xmlns="http://www.w3.org/2000/svg" width="166" height="88" viewBox="0 0 166 88" fill="none">
  <g clip-path="url(#clip0_276_27210)">
    <mask id="mask0_276_27210" style="mask-type:luminance" maskUnits="userSpaceOnUse" x="121" y="46" width="43" height="42">
      <path d="M163.393 46.0346L121.504 46.0346L121.504 87.8353L163.393 87.8353L163.393 46.0346Z" fill="white"/>
    </mask>
    <g mask="url(#mask0_276_27210)">
      <path d="M121.501 46.0358C121.501 51.5252 122.585 56.9608 124.69 62.0323C126.795 67.104 129.881 71.7118 133.77 75.5933L133.77 75.5935C137.66 79.4748 142.278 82.554 147.36 84.6547L147.361 84.6544C152.443 86.7551 157.89 87.8367 163.391 87.8367L163.391 75.2963C159.54 75.2963 155.727 74.5394 152.169 73.0688L152.169 73.0688C148.612 71.5987 145.38 69.4433 142.657 66.7262C139.934 64.0087 137.774 60.7832 136.3 57.2334L136.3 57.2332C134.826 53.6831 134.068 49.8782 134.068 46.0358L121.501 46.0358Z" fill="#ABD158"/>
    </g>
    <mask id="mask1_276_27210" style="mask-type:luminance" maskUnits="userSpaceOnUse" x="16" y="0" width="43" height="42">
      <path d="M16.7786 41.855L58.668 41.855L58.668 0.0542717L16.7786 0.054268L16.7786 41.855Z" fill="white"/>
    </mask>
    <g mask="url(#mask1_276_27210)">
      <path d="M16.7783 12.5937C20.629 12.5937 24.4422 13.3507 27.9998 14.8212C31.5572 16.2916 34.7897 18.4468 37.5129 21.1641C40.2357 23.8812 42.3954 27.1068 43.8688 30.6566L43.869 30.6568C45.3427 34.2069 46.1012 38.0118 46.1012 41.8543L58.668 41.8543C58.668 36.3648 57.5844 30.9292 55.4791 25.8577C53.3741 20.7861 50.2883 16.1782 46.3988 12.2968L46.3988 12.2965C42.5089 8.4151 37.8912 5.33607 32.8088 3.23536C27.7266 1.13468 22.2793 0.0535247 16.7784 0.0535242L16.7783 12.5937Z" fill="#ABD158"/>
    </g>
    <mask id="mask2_276_27210" style="mask-type:luminance" maskUnits="userSpaceOnUse" x="121" y="0" width="43" height="42">
      <path d="M163.391 41.8553L121.502 41.8553L121.502 0.0545769L163.391 0.0545805L163.391 41.8553Z" fill="white"/>
    </mask>
    <g mask="url(#mask2_276_27210)">
      <path d="M163.391 0.0540161C157.89 0.0540156 152.442 1.13516 147.36 3.23585L146.885 3.43566C142.148 5.46223 137.826 8.34393 134.137 11.9356L133.77 12.297L133.77 12.2972C129.881 16.1787 126.795 20.7866 124.69 25.8582L124.496 26.3347C122.518 31.2694 121.501 36.5368 121.501 41.8547L134.068 41.8547C134.068 38.0123 134.826 34.2074 136.3 30.6573L136.3 30.6571C137.774 27.1073 139.933 23.8817 142.656 21.1646L142.913 20.9115C145.582 18.3133 148.723 16.2461 152.169 14.8217C155.727 13.3512 159.54 12.5942 163.391 12.5942L163.391 0.0540161Z" fill="#ABD158"/>
    </g>
    <mask id="mask3_276_27210" style="mask-type:luminance" maskUnits="userSpaceOnUse" x="16" y="46" width="43" height="42">
      <path d="M16.7786 46.002L58.668 46.002L58.668 87.8027L16.7786 87.8027L16.7786 46.002Z" fill="white"/>
    </mask>
    <g mask="url(#mask3_276_27210)">
      <path d="M46.1012 46.0032C46.1012 49.7256 45.3894 53.4128 44.0051 56.8671L43.869 57.2006L43.8688 57.2009C42.3954 60.7507 40.2356 63.9764 37.5129 66.6934C34.7897 69.4106 31.5573 71.5661 28 73.0363L27.9995 73.0363C24.4419 74.5068 20.6289 75.2637 16.7783 75.2637L16.7783 87.8042C22.2793 87.8042 27.7264 86.7228 32.8086 84.6221L33.2837 84.4223C38.0211 82.3958 42.3427 79.5141 46.0318 75.9226L46.3988 75.5609C50.2884 71.6795 53.3741 67.0713 55.4791 61.9998L55.6736 61.5233C57.6512 56.5885 58.668 51.3211 58.668 46.0032L46.1012 46.0032Z" fill="#ABD158"/>
    </g>
    <mask id="mask4_276_27210" style="mask-type:luminance" maskUnits="userSpaceOnUse" x="69" y="23" width="43" height="42">
      <path d="M111.034 23.0442L69.1445 23.0442L69.1445 64.845L111.034 64.845L111.034 23.0442Z" fill="white"/>
    </mask>
    <g mask="url(#mask4_276_27210)">
      <path d="M90.0893 52.3049C85.4624 52.3049 81.7114 48.562 81.7113 43.9449C81.7113 39.3277 85.4623 35.5846 90.0893 35.5846C94.7163 35.5846 98.4671 39.3277 98.4671 43.9449C98.4671 48.562 94.7163 52.3049 90.0893 52.3049ZM90.0893 64.8451C101.657 64.8451 111.034 55.4878 111.034 43.9449C111.034 32.4019 101.657 23.0445 90.0893 23.0444C78.5219 23.0444 69.1445 32.4019 69.1445 43.9449C69.1446 55.4878 78.5219 64.8451 90.0893 64.8451Z" fill="#ABD158"/>
    </g>
    <path d="M0.0230541 0.0540455L0.0230505 41.8548L12.5898 41.8548L12.5898 0.0540466L0.0230541 0.0540455Z" fill="#ABD158"/>
    <path d="M69.1419 0.0539819L69.1419 12.5942L111.031 12.5942L111.031 0.0539856L69.1419 0.0539819Z" fill="#ABD158"/>
    <path d="M69.1419 75.2629L69.1419 87.8031L111.031 87.8031L111.031 75.2629L69.1419 75.2629Z" fill="#ABD158"/>
    <path d="M0.0230541 46.0348L0.0230505 87.8358L12.5898 87.8358L12.5898 46.0348L0.0230541 46.0348Z" fill="#ABD158"/>
  </g>
  <defs>
    <clipPath id="clip0_276_27210">
      <rect width="180.293" height="88" fill="white" transform="matrix(-1 -8.74228e-08 -8.74228e-08 1 180.293 3.05176e-05)"/>
    </clipPath>
  </defs>
</svg>